# xmcd CD database file
#
# Track frame offsets:
#	182
#	14457
#	100632
#	130782
#	148032
#	189057
#
# Disc length: 3319 seconds
#
# Revision: 0
# Processed by: cddbd v1.5.1PL0 Copyright (c) Steve Scherf et al.
# Submitted via: CDex 1.51
#
DISCID=430cf506
DTITLE=Peter Schärli Quintet - Drei Seelen - Three Souls
DYEAR=1988
DGENRE=Jazz
TTITLE0=Il'e Ak'e
TTITLE1=Derei Seelen - Three Souls
TTITLE2=I Remeber Wolfred
TTITLE3=Tira Tira
TTITLE4=Magic Walk
TTITLE5=Wenn's im Sommer ins Kino schneit
EXTD=YEAR: 1988
EXTT0=
EXTT1=
EXTT2=
EXTT3=
EXTT4=
EXTT5=
PLAYORDER=
